<?xml version="1.0" encoding="utf-8"?>
<!-- Generator: Adobe Illustrator 19.1.0, SVG Export Plug-In . SVG Version: 6.00 Build 0)  -->
<svg version="1.1" id="Layer_1" xmlns="http://www.w3.org/2000/svg" xmlns:xlink="http://www.w3.org/1999/xlink" x="0px" y="0px"
	 viewBox="0 0 228.4 335.1" style="enable-background:new 0 0 228.4 335.1;" xml:space="preserve">
<style type="text/css">
	.st0{fill:#FFFFFF;}
</style>
<path class="st0" d="M132.4,64.8c7.4-5.6,13-11.5,17-17.8c7.2-11.5,6.9-21.1,5.3-27.1C151.7,8.1,141.8,0,130.5,0
	c-6,0-11.7,2.4-16.3,6.8C109.6,2.4,103.9,0,97.9,0C86.7,0,76.7,8.1,73.8,19.8c-1.5,6.1-1.9,15.7,5.3,27.1c3.9,6.3,9.6,12.2,17,17.8
	c-54.4,8.7-96,56-96,112.8v138.8c0,10.6,11.3,18.9,25.6,18.9c14.4,0,25.6-8.3,25.6-18.9V192.1c26-7.2,41.9-22.6,51.4-36.5
	c5.3-7.7,9-15.5,11.6-22.5c2.6,7,6.3,14.8,11.6,22.5c9.5,14,25.4,29.3,51.4,36.5v124.2c0,10.6,11.3,18.9,25.6,18.9
	c14.4,0,25.6-8.3,25.6-18.9V177.5C228.5,120.7,186.8,73.5,132.4,64.8z M92.7,148.8c-10.3,15.1-24.2,25.4-41.5,30.9v-2.2
	c0-32.3,24.5-59,55.8-62.6C105.4,122.8,101.5,136,92.7,148.8z M114.2,62.4C82.8,44.3,84.2,27.5,85.4,22.8C87,16.5,92.2,12,97.9,12
	c4.3,0,8.2,2.6,11.2,7.5c1.1,1.8,3,2.9,5.1,2.9c2.1,0,4-1.1,5.1-2.9c3-4.9,6.8-7.5,11.2-7.5c5.7,0,10.9,4.5,12.5,10.8
	C144.3,27.5,145.7,44.3,114.2,62.4z M177.2,179.7c-17.2-5.4-31-15.6-41.2-30.5c-8.9-12.9-12.9-26.4-14.6-34.3
	c31.4,3.6,55.8,30.3,55.8,62.6V179.7z"/>
</svg>
