<svg xmlns="http://www.w3.org/2000/svg" viewBox="0 0 42 55.5" enable-background="new 0 0 42 55.5"><style type="text/css">.st0{fill:#FFFFFF;stroke:#D0485C;stroke-width:1.2;stroke-miterlimit:10;} .st1{fill:#ECC6D6;} .st2{fill:#D0495B;stroke:#D0485C;stroke-width:0.1;stroke-miterlimit:10;}</style><path class="st0" d="M21.2 1c-10.9 0-19.7 8.8-19.7 19.7 0 10.6 18.3 32.1 19.1 33l.6.7.6-.7c.8-.9 19.1-22.4 19.1-33 0-10.9-8.9-19.7-19.7-19.7zm0 27.8"/><path class="st1" d="M35.4 20.6l.6-1.3c1-2.3 1-2.3 1-2.6-.8-3.2-4.1-4.8-5-5.1-.4-1-1.3-2.2-2.8-3.1-2.6-1.5-3.5-3.7-3.5-3.7-.1-.2-.2-.3-.4-.3-.1 0-1.4-.2-3 .1-1.4.3-2.5.8-3.3 1.7-.9-.7-2.1-1-3-1.1-.9-.1-1.7-.1-1.9 0-.2.1-.3.2-.3.4-.1.5-.5 1.1-.9 1.7-.6.9-1.2 1.9-1.1 2.9-2.1 1.1-4.4 3.2-4.7 3.6-.1.1-.1.1-.1.2s-.4 1.3-.6 2.9c-.3 2.2-.1 4.1.7 5.5 0 0 0 .1.1.1-.7 1.2-.4 2.3-.2 3.3.2.8.3 1.4.1 2.1-.1.2 0 .3 0 .5.2.3 2.6 2 5.2 2.3 0 .2.1.3.2.5.6 1.4 2 2.6 4.2 3.4 1.1.4 1.9.8 2.6 1.2.9.4 1.6.8 2.6 1 .3.1.6.1.8.1 1.3 0 2.8-.6 4.1-1.7.3-.2.6-.4 1-.7 1.4-.8 3.3-1.9 3.1-4.7l.7-.4.1.1c.2.1.4.2.6.2.9 0 1.8-1.1 2.7-2.1.7-.8 1.4-1.7 2-1.9.2-.1.4-.2.5-.7.1-1.2-.8-3.4-2.1-4.4z"/><path class="st2" d="M35.4 20.6l.6-1.3c1-2.3 1-2.3 1-2.6-.8-3.2-4.1-4.8-5-5.1-.4-1-1.3-2.2-2.8-3.1-2.6-1.5-3.5-3.7-3.5-3.7-.1-.2-.2-.3-.4-.3-.1 0-1.4-.2-3 .1-1.4.3-2.5.8-3.3 1.7-.9-.7-2.1-1-3-1.1-.9-.1-1.7-.1-1.9 0-.2.1-.3.2-.3.4-.1.5-.5 1.1-.9 1.7-.6.9-1.2 1.9-1.1 2.9-2.1 1.1-4.4 3.2-4.7 3.6-.1.1-.1.1-.1.2s-.4 1.3-.6 2.9c-.3 2.2-.1 4.1.7 5.5 0 0 0 .1.1.1-.7 1.2-.4 2.3-.2 3.3.2.8.3 1.4.1 2.1-.1.2 0 .3 0 .5.2.3 2.6 2 5.2 2.3 0 .2.1.3.2.5.6 1.4 2 2.6 4.2 3.4 1.1.4 1.9.8 2.6 1.2.9.4 1.6.8 2.6 1 .3.1.6.1.8.1 1.3 0 2.8-.6 4.1-1.7.3-.2.6-.4 1-.7 1.4-.8 3.3-1.9 3.1-4.7l.7-.4.1.1c.2.1.4.2.6.2.9 0 1.8-1.1 2.7-2.1.7-.8 1.4-1.7 2-1.9.2-.1.4-.2.5-.7.1-1.2-.8-3.4-2.1-4.4zm.5-3.7c-.1.3-.5 1.2-.9 2-.5 1.2-1 2.2-1.3 3-.1-.2-.1-.4-.2-.5-.3-.9-.6-1.8-.7-2.7-.1-.9-.3-1.6-.7-2.2.4-1 .5-2.3.3-3.5 1.1.6 3 1.8 3.5 3.9zm-6.8 12.4c-1.1.5-2.3 1.1-3.5 2.1-1.6 1.4-3.6.9-4.9-.2.4-.3.7-.6 1-.9 1.2-.2 2.5-.6 3.7-1.3 2.2-1.3 3.8-3.3 4.5-5.6.9-2.9-.1-6.1-1.6-8.1.5 0 1.4.1 2.1.7.8.6 1.2 1.5 1.4 2.8.1 1 .4 2 .8 2.9.5 1.4.9 2.8.5 3.9-1 2.3-2.3 3-4 3.7zm-16.6-2.9c-.4-1-1-1.6-1.5-2.2-.7-.8-1.2-1.4-1.4-2.7-.4-3 1.5-5.8 3.4-7 .5-.3 1-.5 1.5-.5-1.1 1.3-2.4 3.4-2.4 5.4 0 1.2.5 2.3 1.5 3 .3.2.5.4.8.5-.3.9-.2 2.3.4 3.5.5 1.1 1.6 2.9 4.1 3.7.4.1.9.2 1.3.2-.7.6-1.6.8-2.5.7-2-.1-4-1.9-5.2-4.6zm2.7-16.8c.8-.6 2.6-1.5 4.8-.2 1.6.9 3.1 1.3 4.4 1.6 1.7.4 2.6.6 3 1.7.2.7-.2 1.2-.4 1.3-1.1-.8-2.2-1-3.3-.6-.5-.5-1.2-.9-1.9-1.1-2.1-.8-4.6-.4-6.4.9-.7-.3-1.5-.2-2.3.2 0-1.4 1-3 2.1-3.8zm4 19.6c-2.1-.6-3.1-2.2-3.5-3.1-.5-1.1-.5-2.1-.4-2.7l.7.2c.6 1.4 2 2.5 3.6 2.8.3.1.6.1 1 .1 1.7 0 3.3-.8 4.5-2.3 1.4-1.8 2.7-4.2.4-7.3-.1-1-.5-1.9-1-2.7 1-.1 1.8.5 2.3 1 1.8 1.7 3.1 5.1 2.2 8-.6 2-2.1 3.8-4.1 5-1.9 1.1-4 1.5-5.7 1zm-3.4-15.1c1.5-1.3 3.7-1.7 5.6-1 .7.3 1.9.9 2.6 2.3-.8-.6-1.8-.9-2.8-1-1.3-.1-2.6.3-3.4 1-1.5 1.4-2.1 3.1-1.5 4.6.4 1.1 1.3 2 2.3 2.3-1.1.4-2.7.6-4.3-.8-.7-.6-1.1-1.3-1.1-2.3-.1-1.2.8-3.5 2.6-5.1zm3.7 7.5c-.3-.3-.5-.6-.5-1s.1-.8.3-1.1c.3-.3.6-.5 1-.5h.2c.3 0 .7.1.9.3.6.5.7 1.5.2 2.1-.3.3-.6.5-1 .5-.4.1-.8-.1-1.1-.3zm1 1.4h.3c.7-.1 1.3-.4 1.7-.9.9-1.1.7-2.7-.4-3.6-.5-.4-1.2-.6-1.9-.6-.7.1-1.3.4-1.7.9-.4.5-.6 1.2-.6 1.9v.2c-.3-.3-.6-.7-.8-1.2-.4-1.2 0-2.4 1.3-3.5.6-.6 1.6-.8 2.6-.7 1.4.1 2.6.8 3.5 1.9 1.9 2.4 1.3 4.2-.3 6.1-1.7 2-3.5 2.1-4.4 1.9-1.1-.2-2-.8-2.6-1.7h.5c.5-.1 1.3-.3 2.2-.8.2.1.4.1.6.1zm1.9-17.4c1-.2 2-.1 2.4-.1.4.7 1.5 2.6 3.9 3.9 1.7 1 2.4 2.4 2.6 3.4.2 1 .2 1.9 0 2.6l-.3-.3c-1.1-.8-2.4-.9-3-.9.4-.5.6-1.2.3-2-.6-1.6-2-2-3.7-2.4-1.2-.3-2.6-.6-4.1-1.5-.5-.3-1-.5-1.5-.6.7-1 1.8-1.8 3.4-2.1zm-8.8 2.2c.4-.5.7-1.1.9-1.7.7 0 2.6 0 3.7.9l-.3.6c-1.5-.1-2.7.6-3.3 1.1-.3.3-.6.5-.8.7-.3 0-.7.1-1.1.2.1-.5.5-1.1.9-1.8zm-5.8 6.6c.3-.3 1.2-1.1 2.3-2 1.2-.9 2.1-1.4 2.7-1.6-.6 1-.9 2.2-.8 3.1-2.1 1.5-3.9 4.5-3.5 7.8.1.6.2 1.1.4 1.5-.5-.4-.9-.8-1.2-1.4-1.3-2.6-.1-6.7.1-7.4zm0 11.1c-.2-.8-.3-1.4-.1-2.1.6.7 1.5 1.2 2.5 1.5.5.5.9 1.1 1.3 1.9.2.5.5 1 .8 1.4-.2.4-.3.8-.3 1.3-1.8-.2-3.4-1.3-4-1.7.1-.8-.1-1.6-.2-2.3zm19.4 8c-.4.3-.9.5-1.2.8-1.4 1.2-2.8 1.7-4 1.4-.9-.2-1.5-.5-2.4-.9-.7-.4-1.6-.8-2.7-1.2-1.9-.7-3.1-1.7-3.6-2.8-.3-.6-.3-1.1-.3-1.5l1.1 1.2c1.1.9 2.2 1.5 3.4 1.7h.6c.6 0 1.1-.1 1.7-.3.8.8 1.9 1.3 3 1.4h.7c1.1 0 2-.4 2.9-1.1 1.1-1 2.2-1.5 3.2-2l.2-.1c-.1 1.9-1.4 2.6-2.6 3.4zm7-6.8c-.5.6-1.1 1.3-1.6 1.6.5-.6 1-1.3 1.4-2.3.3-.8.3-1.5.2-2.3l.1-.2c.1-.3.4-1.1.7-1.9.9.9 1.4 2.5 1.4 3-.7.4-1.5 1.3-2.2 2.1zm0 0"/></svg>