<svg xmlns="http://www.w3.org/2000/svg" viewBox="-270 112.6 97.4 97.4" enable-background="new -270 112.6 97.4 97.4"><style type="text/css">.st0{fill:#FFFFFF;}</style><path class="st0" d="M-257.5 112.6h72.4c6.9 0 12.5 5.1 12.5 12.5v72.4c0 7.4-5.6 12.5-12.5 12.5h-72.4c-6.9 0-12.5-5.1-12.5-12.5v-72.4c0-7.4 5.6-12.5 12.5-12.5zm58.4 10.8c-2.4 0-4.4 2-4.4 4.4v10.5c0 2.4 2 4.4 4.4 4.4h11c2.4 0 4.4-2 4.4-4.4v-10.5c0-2.4-2-4.4-4.4-4.4h-11zm15.5 30.4h-8.6c.8 2.6 1.3 5.5 1.3 8.4 0 16.2-13.6 29.3-30.3 29.3-16.7 0-30.3-13.1-30.3-29.3 0-2.9.4-5.7 1.3-8.4h-8.9v41.1c0 2.1 1.7 3.9 3.9 3.9h67.8c2.1 0 3.9-1.7 3.9-3.9l-.1-41.1zm-37.6-11.7c-10.8 0-19.6 8.5-19.6 19s8.8 19 19.6 19 19.6-8.5 19.6-19-8.8-19-19.6-19z"/></svg>