<?xml version="1.0" encoding="utf-8"?>
<!-- Generator: Adobe Illustrator 19.1.0, SVG Export Plug-In . SVG Version: 6.00 Build 0)  -->
<svg version="1.1" id="Layer_1" xmlns="http://www.w3.org/2000/svg" xmlns:xlink="http://www.w3.org/1999/xlink" x="0px" y="0px"
	 viewBox="0 0 634.7 663.7" style="enable-background:new 0 0 634.7 663.7;" xml:space="preserve">
<style type="text/css">
	.st0{fill:#FFFFFF;}
</style>
<g>
	<path class="st0" d="M499.4,325c6.5,0,12.9,0,19.4,0c36.3,0,72.7,0,109,0c6.9,0,6.9,0,6.9,6.9c0,39,0,78,0,117
		c0,6.7-0.1,6.7-6.6,6.7c-4.7,0-9.3-0.2-14,0.1c-4.1,0.2-5.9-1-6.2-5.5c-1.2-18.5-4-36.8-11.8-53.9c-7.8-17.3-18.9-31.4-38-37.2
		c-5-1.5-10-2.5-15.2-2.5c-18.5,0-37,0-55.5,0c-7,0-7.7,0.7-7.7,7.8c0,33.3,0,66.7,0,100c0,6.2,0.8,6.9,7,6.3
		c9.1-0.8,18.3-0.9,27.3-2.6c19-3.6,30.4-15.7,32-35c1.1-12.9,1.1-12.9,13.8-12.9c12.8,0,12.8,0,12.8,12.6c0,38.7-0.1,77.3,0.1,116
		c0,4.9-1.2,7.1-6.4,6.7c-4.6-0.3-9.3-0.1-14,0.1c-3.6,0.2-5.4-0.8-5.7-4.9c-0.6-9.8-1.5-19.6-5.9-28.7
		c-4.9-10.2-12.8-15.5-24.1-15.5c-10.5-0.1-21,0.2-31.5,0c-4-0.1-5.6,1.1-5.6,5.3c0.1,36,0.1,72,0,108c0,3,0.4,5.4,4.2,5.3
		c25-0.3,49.7-2.5,72.3-14.3c28.4-14.8,44.9-38.4,49.8-70.1c1-6.6,2.3-13.1,2.1-19.8c-0.1-4,1.4-5.8,5.5-5.7c5.3,0.1,10.7,0.1,16,0
		c3.5-0.1,5.1,1.1,5.1,4.9c-0.1,46.2-0.1,92.3,0.1,138.5c0,4.1-1.8,5-5.5,5c-23.5-0.1-47,0-70.5,0c-71,0-142,0-213,0
		c-8.6,0-8.6,0-8.6-8.4c0-6.3,0.2-12.7-0.1-19c-0.2-4.7,1.2-6.6,6.2-6.3c9.2,0.6,18.3-0.3,26.9-4c7-3,11-8,10.9-16.2
		c-0.2-78.2-0.2-156.3-0.2-234.5c0-12.4-4.8-17-17-17.8c-21.1-1.4-42.3-0.8-63.4-0.4c-7.1,0.1-11.6,3-14.3,9.4
		c-8.7,20.9-15.3,42.6-22.3,64.2c-23.1,71.6-45.7,143.4-67.8,215.4c-0.6,2.1-1.4,4.1-2.1,6.2c-4.1,13.4-1.6,11.1-15.5,11.3
		c-11.3,0.1-22.7-0.2-34,0.1c-4.3,0.1-6.5-1.2-8-5.4c-14.7-41.3-29.7-82.4-44.6-123.6c-18.7-51.7-37.4-103.4-56-155.1
		c-3.3-9.1-7.7-17-17.6-20.3c-4.5-1.5-9.1-1.8-13.8-2.2c-3.5-0.3-4.9-1.6-4.8-5.3c0.2-15.5,0.1-31,0-46.5c0-3.7,1.2-4.9,5-4.6
		c6.3,0.4,12.6-0.3,18.7-2.4c8.7-3.1,12.3-8,12.3-17.2c0.1-12,0-24,0-36c0-62.3-0.1-124.7,0.1-187c0-8-3.4-13.3-9.5-17.5
		c-6.3-4.4-13.5-6.6-21.1-6.8c-4.4-0.1-5.8-1.8-5.6-6.1c0.3-7.2,0.3-14.3,0-21.5C-0.2,1.3,1.5,0,6.3,0c47.2,0.2,94.3,0.1,141.5,0.1
		c5.7,0,11.3,0.1,17-0.1c3.6-0.1,5.1,1.1,5.1,4.9c-0.2,7.8-0.1,15.7,0,23.5c0.1,3.4-1.4,4.8-4.7,5c-5.5,0.3-10.9,0.9-16.1,2.9
		c-9.2,3.6-13.1,9-13.2,19c-0.1,15.2,0,30.3,0,45.5c0,63,0,126,0,189c0,7.5,0,7.5,7.5,7.5c11.7,0,23.3-0.3,35,0.1
		c16.1,0.6,29.9-5.3,42.7-14.5c28.6-20.4,42.5-49.1,47.2-83.1c1.9-13.2,3.3-26.5,3-39.8c-0.1-4,1.6-5.2,5.3-5.2
		c7.5,0,15-0.5,22.5-0.7c3.2,0,4.7-1.2,5.3-4.5c8.9-49.1,33.1-88.9,73-118.7c48.6-36.3,115.1-39.5,165.8-6.5
		c40.1,26.1,66.3,62.8,75,110.5c5,27.5,1.5,54.5-9,80.4c-15.2,37.3-38.7,68.2-72.5,90.7c-10.9,7.2-22.5,13.1-35,16.8
		c-0.8,0.2-1.5,0.8-2.2,1.1C499.4,324.4,499.4,324.7,499.4,325z M399,274.2c0.8,0,2.8-0.1,4.8-0.2c1-0.1,2-0.4,2.9-0.6
		c16.6-3.1,29.8-11.8,41.1-23.9c31.9-33.8,63.8-67.5,95.7-101.3c10.7-11.3,18-24.4,20.2-39.9c4.1-29.7-16.8-51.5-45.9-48
		c-17.1,2.1-31.1,10.3-42.8,22.6c-8.8,9.1-17.4,18.4-26.1,27.6c-21.7,23-43.3,46.1-65.3,68.9c-13.1,13.6-23.6,28.1-26.4,47.5
		C353.5,252.9,371.4,274.3,399,274.2z M195.2,526.7c2.1-2.3,2.3-4.4,2.9-6.2c10.1-33.8,20.3-67.6,30.2-101.4
		c4.4-14.8,8.5-29.8,12.4-44.7c2.5-9.7-3.3-16.8-13.3-16.9c-2.7,0-5.3,0-8,0c-7.8,0-7.9-0.1-7.9-7.7c0-6-0.2-12-0.1-18
		c0-3.8-1.6-5.3-5.4-5.2c-8,0.2-16,0.1-24,0c-3.8-0.1-5.5,1.4-5.4,5.3c0.2,6.3,0.1,12.7,0.2,19c0,6.4-0.2,6.6-6.8,6.7
		c-5.2,0-10.3,0-15.5,0c-11.7,0.2-16.6,7.1-12.8,18c11.2,32.4,22.4,64.8,33.8,97.1C181.7,490.4,188.4,508.2,195.2,526.7z M411.2,325
		c-52.4-19.6-91.4-52.1-106.1-108.6c-0.4,34.7-0.4,69.2-0.5,103.7c0,3.7,1.6,5,5.1,5C343.5,324.9,377.4,325,411.2,325z"/>
</g>
</svg>
