<svg xmlns="http://www.w3.org/2000/svg" viewBox="-76 -82.2 485.2 485.2" enable-background="new -76 -82.2 485.2 485.2"><style type="text/css">.st0{fill:#FFFFFF;}</style><path class="st0" d="M409.2 281.7c0 10.6-3 20.5-7.8 29.2l-153.2-171.4 151.6-132.6c5.9 9.4 9.4 20.3 9.4 32.2v242.6zm-242.6-111.1l210.9-184.5c-8.7-4.7-18.4-7.6-28.9-7.6h-363.9c-10.5 0-20.3 2.9-28.9 7.6l210.8 184.5zm58.8-11.2l-48.8 42.7c-2.9 2.5-6.4 3.7-10 3.7-3.6 0-7.1-1.2-10-3.7l-48.8-42.7-155.1 173.6c9.3 5.8 20.2 9.3 32 9.3h363.9c11.8 0 22.7-3.5 32-9.3l-155.2-173.6zm-292-152.5c-5.9 9.4-9.4 20.3-9.4 32.2v242.6c0 10.6 3 20.5 7.8 29.2l153.2-171.5-151.6-132.5z"/></svg>