<svg xmlns="http://www.w3.org/2000/svg" viewBox="107 -182.9 414.9 414.9" enable-background="new 107 -182.9 414.9 414.9"><path d="M266.1 73.5c37.2 36.9 80.3 72.2 97.2 55.2 24.2-24.4 39.1-45.6 92.9-2.8 53.7 42.9 12.7 71.7-10.8 95.4-27 27.3-128.4 1.9-228.9-97.8-100.4-99.7-126.6-200.9-99.5-228.2 23.5-23.6 52-64.9 95.3-11.4 43.3 53.4 22.2 68.5-2.1 92.9-16.9 17 18.7 59.8 55.9 96.7zm54-176.2s-11.2-1.8-19.1 6.1c-8.1 8.1-8.4 22 .1 30.6 5 5 12.1 6.1 12.1 6.1 13.9 2.6 34.7 7 56.9 29.2s26.6 43.1 29.2 56.9c0 0 1.1 7.1 6.1 12.1 8.5 8.5 22.5 8.2 30.6.1 7.9-7.9 6.1-19.1 6.1-19.1-4.4-28.1-18-57.4-41.4-80.7-23.2-23.3-52.5-36.9-80.6-41.3zm105.3 16.7c40.7 40.7 58.1 86.9 52.4 124.4 0 0-2 11.9 5.8 19.6 8.7 8.7 22.5 8.2 30.7.1 5.2-5.2 6.4-13.8 6.4-13.8 4.7-32.4-1.2-97.5-64.6-160.9-63.5-63.5-128.6-69.3-161-64.7 0 0-8.5 1.1-13.8 6.4-8.2 8.2-8.7 22 .1 30.7 7.8 7.8 19.6 5.8 19.6 5.8 37.5-5.7 83.7 11.7 124.4 52.4z"/></svg>