<svg xmlns="http://www.w3.org/2000/svg" viewBox="0 0 882.6 347" enable-background="new 0 0 882.6 347"><style type="text/css">.st0{fill:#FFFFFF;}</style><path class="st0" d="M0 339.8c2.1-6.6 4.2-13.2 6.2-19.8l39.6-132.9c3.6-12.1 7.5-24.2 10.8-36.4 1.9-6.9 5.8-11.6 11.9-14.8 7.6-4 15.6-7 24.4-6.7 1.9.1 4 .6 5.7 1.4 3.2 1.4 3.9 3.3 2.9 6.6l-11.9 40.4c-9.9 33.5-19.8 66.9-29.8 100.4-.1.2-.1.4-.3 1.3 2.2-1.9 4-3.5 5.8-5.1 38.2-34.4 78.7-65.7 121.5-94.3 33.5-22.4 68.1-42.8 103.8-61.4 54.1-28.2 110.1-52.1 168.1-71.1 40.7-13.3 82-24.5 124.1-32.4 21.4-4 42.9-7.6 64.5-10.3 18.2-2.3 36.6-2.9 54.9-4.3.6 0 1.3-.2 1.9-.3h33.1l22 1.4c20 1.4 39.9 3.9 59.5 8.2 12.8 2.8 25.3 6.8 36.5 13.7 12.2 7.5 21.5 17.6 25.6 31.7.8 2.7 1.2 5.6 1.8 8.4v9.1c-1.4 5.5-2.4 11.2-4.3 16.6-3.8 10.4-8.9 20.3-16.6 28.3-7.4 7.7-15.4 14.8-25 20-4.3 2.4-8.5 5.1-13 7.2-5.5 2.6-11.3 4.4-17.6 2.7-1.7-.4-2.4-1.6-1.9-2.9.8-2.1 1.7-4.4 3.2-6 7.4-8.3 14.4-16.9 20.2-26.4 4.6-7.6 8.4-15.6 9.5-24.6 1.7-13.3-2.5-24.6-12.1-33.8-9.2-8.8-20.5-13.7-32.5-17-13.6-3.8-27.4-6-41.4-7.7-18.7-2.3-37.6-3.2-56.4-3.2-18.4 0-36.7 1.2-55 3.1-57.5 6.1-113.5 19.2-168.6 36.4-48.2 15.1-95 33.9-140.4 56.2-27.3 13.5-54 28-80 43.8-48.2 29.4-93.7 62.4-136.4 99.3-23.1 19.9-45.1 41-66.4 62.8-3.3 3.4-6.4 7-10 10-6.4 5.4-14.1 7.9-22.3 9.3-.6.1-1.2.3-1.8.5h-5.3c-3.1-.7-6.5-1-8.6-3.8.1-1.3.1-2.5.1-3.6zm273.6-113.5c-8 5.4-16 10.8-23.9 16.3-26.9 19-52.3 39.7-77.4 60.9-5.7 4.8-11.3 9.7-17.2 14.2-8.2 6.3-17.6 10-28.1 10.3-2.5.1-5.1-.5-7.5-1.3-3.5-1.2-4.6-4.2-3-7.5 1-2 2.3-3.8 3.9-5.4 48-48.6 99.6-92.8 155.2-132.4 8.6-6.1 18.1-10.1 29-9.6 1.2 0 2.4.2 3.6.5 4.8 1 6.1 3 5.3 7.6 3.6-.9 7.2-2.1 11-2.5 3.3-.4 6.8-.3 10 .4 5.4 1.2 6.9 5.3 4 10-10.1 16.5-20.3 33.1-30.5 49.6-13.2 21.4-26.7 42.7-39.5 64.3-5.5 9.3-13.3 14.8-23.2 17.9-6.1 1.9-12.2 3.4-18.6 1.8-1.4-.3-2.9-1-4.1-1.8-2-1.3-2.8-3.3-1.9-5.6.8-1.8 1.7-3.6 2.8-5.3l49.8-80.7.8-1.4c-.2 0-.4-.1-.5-.3zm99.2 19.2l13.5 2.7c16.6 3.2 33.2 6.4 49.8 9.7 5.5 1.1 7.5 5.3 4.4 10.2-1.6 2.5-3.8 4.8-6.3 6.4-11.8 7.7-24.6 13.5-37.6 18.8-21.8 8.8-44.3 14.6-67.6 17.6-12.8 1.7-25.6 2.3-38.5 2-1.4 0-2.9-.3-4.2-.7-4.9-1.5-6.5-5.4-3.5-9.4 2.5-3.3 5.5-6.3 8.8-8.7 7.9-5.6 17-8.2 26.6-8 18.8.4 37.1-2.4 55.2-6.9l1.3-.6c-2.9-.6-5.4-1.1-7.8-1.6l-7.8-1.5c-7.1-1.4-14.3-2.7-21.3-4.4-2.7-.6-5.4-1.8-7.6-3.3-4.8-3.2-5.9-9.2-3.2-15 2.8-5.9 7.5-10.1 12.6-13.8 18.6-13.2 38.6-23.7 59.8-32 13.9-5.4 28-10.1 42.1-14.9 4.9-1.7 10.2-2.2 15.4-1.2 6.2 1.2 7.9 5.9 3.9 11s-9.4 8.5-15.3 10.7c-8.9 3.4-18.1 6.3-27 9.6-15.7 5.8-30.5 13.5-44.8 22.1-.3.2-.5.3-.7.5-.2.2-.2.4-.2.7zm158.3 9.3c.7-.7 1.3-1.2 2-1.8 7.7-7.7 15.3-15.5 23.1-23 7.6-7.3 16.8-10.5 27.2-10.1 2.4.1 4.8.8 5.8 3.1 1 2.4-.3 4.5-1.8 6.3-.5.6-1 1.1-1.5 1.6-21.4 21.5-42.7 43-64.2 64.3-7.3 7.3-16.6 10.3-26.8 10-5.3-.2-7-2.5-6.1-7.6 2.4-13.6 4.7-27.2 7-40.8 0-.2 0-.5-.1-1.3-2.6 3.6-5.1 6.7-7.2 10-6.1 9.8-12.3 19.4-17.8 29.5-3 5.4-7 9.2-12.6 11.5-5.1 2.1-10.4 3.7-16 3.5-1 0-2.1-.2-3.1-.5-3.9-1.1-5.3-3.6-3.5-7.2 3.3-6.5 6.6-13.1 10.4-19.4 15.9-26.8 36-50 59.9-70 7.7-6.4 16.5-10.4 26.8-9.5 4.7.4 6.4 2.5 5.6 7.3-2.6 14.4-4.9 28.9-7.3 43.4 0 .2.1.4.2.7zm102.1-8.5c7.5-4.7 14.6-9.3 21.7-13.8 4.6-3 9.6-5.2 15.1-5.6 2.8-.2 5.9.3 8.6 1.2 2.6.9 3.3 3.2 1.7 5.5-1.6 2.3-3.6 4.5-5.8 6.3-15.6 13.1-31.3 26.1-47.1 39-4.8 3.9-10.6 5.6-16.5 7.3-1.7.5-3.5 1.2-4.8 2.3-5.1 4-9.8 8.4-15 12.4-6.8 5.2-14.4 8.1-23.2 7.4-2.2-.2-4.5-.7-5.4-2.9-1-2.5.2-4.7 2-6.2 4.2-3.8 8.5-7.5 12.9-11.1 6.4-5.3 13-10.4 19.5-15.5 1.2-.9 1.6-1.9 1.6-3.4.2-11.9.5-23.8.9-35.7 0-1.3.7-2.9 1.6-3.8 7.4-7.4 16.3-11 26.8-10.6 3.8.2 5.4 2 5.4 5.9 0 6.8-.1 13.6-.2 20.4.1 0 .1.3.2.9zm42.6 54.2c-6.9-.3-11.5-.7-15.6-3.3-4.5-2.8-6.2-7.2-4.7-12.4 1.4-4.6 4.2-8.2 7.4-11.6 14.6-15.3 31.1-28.2 49.9-38 4.9-2.6 10-4.6 15.7-4.6 2.6 0 5 .5 6.9 2.7.4.5 1.6.5 2.4.7 3.7.6 7.5.7 11 1.8 9.2 3 13 11.9 9.3 20.8-2.7 6.5-7.4 11.6-12.8 15.9-15.5 12.7-33.4 20.4-52.7 25-6.2 1.5-12.6 2.3-16.8 3zm42.3-47.5c-4.3 0-5.6.2-9.4 3.4-5.9 5.1-11.8 10.3-17.5 15.6-1.5 1.4-2.6 3.2-3.5 5-1 2 .1 3.8 2.3 4.2.9.1 1.9.2 2.8 0 10-1.2 18.9-5.2 26.8-11.2 2-1.5 3.8-3.2 5.3-5.1 1.9-2.4 2.6-5.1 1.1-8-1.4-2.9-4-4-7.9-3.9zm82.2 8.1c6.6-3.4 13.1-6.8 19.8-10.1 6.7-3.3 13.1-7.5 20.6-8.8 2.7-.5 5.8-.4 8.4.3 3.6 1 4.5 4.4 1.9 7.1-2.3 2.4-4.8 4.8-7.7 6.3-20.8 10.8-41.7 21.4-62.6 32-4.1 2.1-8.4 3.4-13.1 3.3-1.4 0-2.9-.2-4.3-.5-3.6-1-4.3-2.5-3-5.9 4.5-12.3 10.9-23.5 18.9-34 4.9-6.4 11.4-9.7 19-10.8 3.1-.5 6.4-.2 9.4.5 3.4.8 3.9 3.3 1.9 6.2l-9.6 13.7c0 .3.2.5.4.7z"/></svg>