<svg xmlns="http://www.w3.org/2000/svg" viewBox="-167 8.6 304.4 304.4" enable-background="new -167 8.6 304.4 304.4"><style type="text/css">.st0{fill:#FFFFFF;}</style><path id="XMLID_807_" class="st0" d="M94.9 184.2c10.1 9.9 20.8 19.1 29.8 30 4 4.8 7.8 9.8 10.7 15.4 4.1 8 .4 16.7-6.7 17.2h-44.3c-11.4.9-20.6-3.7-28.2-11.5-6.1-6.3-11.8-12.9-17.7-19.4-2.4-2.6-5-5.1-8-7.1-6.1-3.9-11.3-2.7-14.8 3.6-3.5 6.4-4.3 13.5-4.7 20.7-.5 10.4-3.6 13.2-14.1 13.7-22.4 1.1-43.7-2.3-63.4-13.6-17.4-10-30.9-24-42.7-40-22.9-31-40.4-65.1-56.2-100.1-3.5-7.9-1-12.1 7.8-12.3 14.5-.3 28.9-.3 43.4 0 5.9.1 9.8 3.5 12 9 7.8 19.2 17.4 37.6 29.4 54.5 3.2 4.5 6.5 9 11.1 12.2 5.1 3.5 9.1 2.4 11.5-3.4 1.5-3.6 2.2-7.5 2.6-11.4 1.1-13.4 1.3-26.7-.7-40.1-1.2-8.3-5.9-13.7-14.2-15.3-4.2-.8-3.6-2.4-1.6-4.8 3.6-4.2 6.9-6.8 13.6-6.8h50.1c7.9 1.6 9.6 5.1 10.7 13v55.7c-.1 3.1 1.5 12.2 7.1 14.2 4.4 1.4 7.4-2.1 10-4.9 12-12.7 20.6-27.8 28.2-43.4 3.4-6.9 6.3-14 9.1-21.1 2.1-5.3 5.4-7.9 11.3-7.8h48.2c1.4 0 2.9 0 4.3.3 8.1 1.4 10.4 4.9 7.8 12.8-4 12.5-11.6 22.8-19.2 33.3-8 11.1-16.6 21.9-24.6 33.1-7.2 10.3-6.7 15.4 2.4 24.3z"/></svg>